<mxfile host="app.diagrams.net" modified="2023-01-13T08:26:36.493Z" agent="5.0 (Macintosh; Intel Mac OS X 10_13_6) AppleWebKit/605.1.15 (KHTML, like Gecko) Version/13.1.2 Safari/605.1.15" etag="OwTK0PCeuUDqH2EUSygs" version="20.8.5" type="github">
  <diagram id="yrK9uavTjPa_yTTO9jQt" name="第 1 页">
    <mxGraphModel dx="1434" dy="1078" grid="0" gridSize="10" guides="1" tooltips="1" connect="1" arrows="1" fold="1" page="1" pageScale="1" pageWidth="827" pageHeight="1169" math="0" shadow="0">
      <root>
        <mxCell id="0" />
        <mxCell id="1" parent="0" />
        <mxCell id="0VLczRj3c2UmXXNUoKyK-3" value="A" style="ellipse;whiteSpace=wrap;html=1;aspect=fixed;direction=west;fillColor=#dae8fc;strokeColor=#6c8ebf;points=[[0,0.5,0,0,0],[0.14,0.14,0,0,0],[0.14,0.86,0,0,0],[0.5,0,0,0,0],[0.5,1,0,0,0],[0.86,0.14,0,0,0],[0.86,0.86,0,0,0],[1,0.5,0,0,0]];" parent="1" vertex="1">
          <mxGeometry x="219" y="370" width="50" height="50" as="geometry" />
        </mxCell>
        <mxCell id="0VLczRj3c2UmXXNUoKyK-4" value="B" style="ellipse;whiteSpace=wrap;html=1;aspect=fixed;fillColor=#dae8fc;strokeColor=#6c8ebf;" parent="1" vertex="1">
          <mxGeometry x="160" y="430" width="50" height="50" as="geometry" />
        </mxCell>
        <mxCell id="0VLczRj3c2UmXXNUoKyK-5" value="C" style="ellipse;whiteSpace=wrap;html=1;aspect=fixed;fillColor=#dae8fc;strokeColor=#6c8ebf;" parent="1" vertex="1">
          <mxGeometry x="269" y="430" width="50" height="50" as="geometry" />
        </mxCell>
        <mxCell id="0VLczRj3c2UmXXNUoKyK-6" value="D" style="ellipse;whiteSpace=wrap;html=1;aspect=fixed;fillColor=#dae8fc;strokeColor=#6c8ebf;" parent="1" vertex="1">
          <mxGeometry x="100" y="510" width="50" height="50" as="geometry" />
        </mxCell>
        <mxCell id="0VLczRj3c2UmXXNUoKyK-7" value="E" style="ellipse;whiteSpace=wrap;html=1;aspect=fixed;fillColor=#dae8fc;strokeColor=#6c8ebf;" parent="1" vertex="1">
          <mxGeometry x="180" y="510" width="50" height="50" as="geometry" />
        </mxCell>
        <mxCell id="0VLczRj3c2UmXXNUoKyK-8" value="F" style="ellipse;whiteSpace=wrap;html=1;aspect=fixed;fillColor=#dae8fc;strokeColor=#6c8ebf;" parent="1" vertex="1">
          <mxGeometry x="244" y="510" width="50" height="50" as="geometry" />
        </mxCell>
        <mxCell id="0VLczRj3c2UmXXNUoKyK-9" value="G" style="ellipse;whiteSpace=wrap;html=1;aspect=fixed;fillColor=#dae8fc;strokeColor=#6c8ebf;" parent="1" vertex="1">
          <mxGeometry x="319" y="510" width="50" height="50" as="geometry" />
        </mxCell>
        <mxCell id="HC6Jzmzlo5u5aJZ6Pqdf-6" value="" style="endArrow=none;html=1;rounded=0;entryX=0.86;entryY=0.14;entryDx=0;entryDy=0;entryPerimeter=0;exitX=1;exitY=0;exitDx=0;exitDy=0;" parent="1" source="0VLczRj3c2UmXXNUoKyK-4" target="0VLczRj3c2UmXXNUoKyK-3" edge="1">
          <mxGeometry width="50" height="50" relative="1" as="geometry">
            <mxPoint x="190" y="460" as="sourcePoint" />
            <mxPoint x="240" y="410" as="targetPoint" />
          </mxGeometry>
        </mxCell>
        <mxCell id="HC6Jzmzlo5u5aJZ6Pqdf-7" value="" style="endArrow=none;html=1;rounded=0;entryX=0.14;entryY=0.14;entryDx=0;entryDy=0;entryPerimeter=0;exitX=0;exitY=0;exitDx=0;exitDy=0;" parent="1" source="0VLczRj3c2UmXXNUoKyK-5" target="0VLczRj3c2UmXXNUoKyK-3" edge="1">
          <mxGeometry width="50" height="50" relative="1" as="geometry">
            <mxPoint x="212.67766952966372" y="457.3223304703363" as="sourcePoint" />
            <mxPoint x="236" y="423" as="targetPoint" />
          </mxGeometry>
        </mxCell>
        <mxCell id="HC6Jzmzlo5u5aJZ6Pqdf-8" value="" style="endArrow=none;html=1;rounded=0;entryX=0;entryY=1;entryDx=0;entryDy=0;exitX=1;exitY=0;exitDx=0;exitDy=0;" parent="1" source="0VLczRj3c2UmXXNUoKyK-6" target="0VLczRj3c2UmXXNUoKyK-4" edge="1">
          <mxGeometry width="50" height="50" relative="1" as="geometry">
            <mxPoint x="150" y="510" as="sourcePoint" />
            <mxPoint x="173.32" y="480" as="targetPoint" />
          </mxGeometry>
        </mxCell>
        <mxCell id="HC6Jzmzlo5u5aJZ6Pqdf-9" value="" style="endArrow=none;html=1;rounded=0;entryX=0.5;entryY=1;entryDx=0;entryDy=0;" parent="1" source="0VLczRj3c2UmXXNUoKyK-7" target="0VLczRj3c2UmXXNUoKyK-4" edge="1">
          <mxGeometry width="50" height="50" relative="1" as="geometry">
            <mxPoint x="232.67766952966372" y="477.3223304703363" as="sourcePoint" />
            <mxPoint x="256" y="443" as="targetPoint" />
          </mxGeometry>
        </mxCell>
        <mxCell id="HC6Jzmzlo5u5aJZ6Pqdf-10" value="" style="endArrow=none;html=1;rounded=0;entryX=0.5;entryY=1;entryDx=0;entryDy=0;exitX=0.5;exitY=0;exitDx=0;exitDy=0;" parent="1" source="0VLczRj3c2UmXXNUoKyK-8" target="0VLczRj3c2UmXXNUoKyK-5" edge="1">
          <mxGeometry width="50" height="50" relative="1" as="geometry">
            <mxPoint x="242.67766952966372" y="487.3223304703363" as="sourcePoint" />
            <mxPoint x="266" y="453" as="targetPoint" />
          </mxGeometry>
        </mxCell>
        <mxCell id="HC6Jzmzlo5u5aJZ6Pqdf-11" value="" style="endArrow=none;html=1;rounded=0;entryX=1;entryY=1;entryDx=0;entryDy=0;" parent="1" source="0VLczRj3c2UmXXNUoKyK-9" target="0VLczRj3c2UmXXNUoKyK-5" edge="1">
          <mxGeometry width="50" height="50" relative="1" as="geometry">
            <mxPoint x="252.67766952966372" y="497.3223304703363" as="sourcePoint" />
            <mxPoint x="212" y="553" as="targetPoint" />
          </mxGeometry>
        </mxCell>
        <mxCell id="GyPhW97D4-BoHJmtfeBr-26" style="edgeStyle=none;rounded=0;orthogonalLoop=1;jettySize=auto;html=1;exitX=0.5;exitY=1;exitDx=0;exitDy=0;exitPerimeter=0;entryX=0.5;entryY=1;entryDx=0;entryDy=0;" edge="1" parent="1" source="GyPhW97D4-BoHJmtfeBr-3" target="GyPhW97D4-BoHJmtfeBr-4">
          <mxGeometry relative="1" as="geometry" />
        </mxCell>
        <mxCell id="GyPhW97D4-BoHJmtfeBr-3" value="A" style="ellipse;whiteSpace=wrap;html=1;aspect=fixed;direction=east;fillColor=#dae8fc;strokeColor=#6c8ebf;points=[[0,0.5,0,0,0],[0.14,0.14,0,0,0],[0.14,0.86,0,0,0],[0.5,0,0,0,0],[0.5,1,0,0,0],[0.86,0.14,0,0,0],[0.86,0.86,0,0,0],[1,0.5,0,0,0]];" vertex="1" parent="1">
          <mxGeometry x="570" y="290" width="30" height="30" as="geometry" />
        </mxCell>
        <mxCell id="GyPhW97D4-BoHJmtfeBr-27" style="edgeStyle=none;rounded=0;orthogonalLoop=1;jettySize=auto;html=1;exitX=0.5;exitY=0;exitDx=0;exitDy=0;entryX=0.5;entryY=1;entryDx=0;entryDy=0;" edge="1" parent="1" source="GyPhW97D4-BoHJmtfeBr-4" target="GyPhW97D4-BoHJmtfeBr-5">
          <mxGeometry relative="1" as="geometry" />
        </mxCell>
        <mxCell id="GyPhW97D4-BoHJmtfeBr-4" value="B" style="ellipse;whiteSpace=wrap;html=1;aspect=fixed;fillColor=#dae8fc;strokeColor=#6c8ebf;direction=west;" vertex="1" parent="1">
          <mxGeometry x="570" y="345" width="30" height="30" as="geometry" />
        </mxCell>
        <mxCell id="GyPhW97D4-BoHJmtfeBr-28" style="edgeStyle=none;rounded=0;orthogonalLoop=1;jettySize=auto;html=1;exitX=0.5;exitY=0;exitDx=0;exitDy=0;entryX=0.5;entryY=1;entryDx=0;entryDy=0;" edge="1" parent="1" source="GyPhW97D4-BoHJmtfeBr-5" target="GyPhW97D4-BoHJmtfeBr-6">
          <mxGeometry relative="1" as="geometry" />
        </mxCell>
        <mxCell id="GyPhW97D4-BoHJmtfeBr-5" value="C" style="ellipse;whiteSpace=wrap;html=1;aspect=fixed;fillColor=#dae8fc;strokeColor=#6c8ebf;direction=west;" vertex="1" parent="1">
          <mxGeometry x="570" y="400" width="30" height="30" as="geometry" />
        </mxCell>
        <mxCell id="GyPhW97D4-BoHJmtfeBr-29" style="edgeStyle=none;rounded=0;orthogonalLoop=1;jettySize=auto;html=1;exitX=0.5;exitY=0;exitDx=0;exitDy=0;entryX=0.5;entryY=1;entryDx=0;entryDy=0;" edge="1" parent="1" source="GyPhW97D4-BoHJmtfeBr-6" target="GyPhW97D4-BoHJmtfeBr-7">
          <mxGeometry relative="1" as="geometry" />
        </mxCell>
        <mxCell id="GyPhW97D4-BoHJmtfeBr-6" value="D" style="ellipse;whiteSpace=wrap;html=1;aspect=fixed;fillColor=#dae8fc;strokeColor=#6c8ebf;direction=west;" vertex="1" parent="1">
          <mxGeometry x="570" y="455" width="30" height="30" as="geometry" />
        </mxCell>
        <mxCell id="GyPhW97D4-BoHJmtfeBr-30" style="edgeStyle=none;rounded=0;orthogonalLoop=1;jettySize=auto;html=1;exitX=0.5;exitY=0;exitDx=0;exitDy=0;entryX=0.5;entryY=1;entryDx=0;entryDy=0;" edge="1" parent="1" source="GyPhW97D4-BoHJmtfeBr-7" target="GyPhW97D4-BoHJmtfeBr-8">
          <mxGeometry relative="1" as="geometry" />
        </mxCell>
        <mxCell id="GyPhW97D4-BoHJmtfeBr-7" value="E" style="ellipse;whiteSpace=wrap;html=1;aspect=fixed;fillColor=#dae8fc;strokeColor=#6c8ebf;direction=west;" vertex="1" parent="1">
          <mxGeometry x="570" y="510" width="30" height="30" as="geometry" />
        </mxCell>
        <mxCell id="GyPhW97D4-BoHJmtfeBr-31" style="edgeStyle=none;rounded=0;orthogonalLoop=1;jettySize=auto;html=1;exitX=0.5;exitY=0;exitDx=0;exitDy=0;entryX=0.5;entryY=1;entryDx=0;entryDy=0;" edge="1" parent="1" source="GyPhW97D4-BoHJmtfeBr-8" target="GyPhW97D4-BoHJmtfeBr-9">
          <mxGeometry relative="1" as="geometry" />
        </mxCell>
        <mxCell id="GyPhW97D4-BoHJmtfeBr-8" value="F" style="ellipse;whiteSpace=wrap;html=1;aspect=fixed;fillColor=#dae8fc;strokeColor=#6c8ebf;direction=west;" vertex="1" parent="1">
          <mxGeometry x="570" y="565" width="30" height="30" as="geometry" />
        </mxCell>
        <mxCell id="GyPhW97D4-BoHJmtfeBr-9" value="G" style="ellipse;whiteSpace=wrap;html=1;aspect=fixed;fillColor=#dae8fc;strokeColor=#6c8ebf;direction=west;" vertex="1" parent="1">
          <mxGeometry x="570" y="620" width="30" height="30" as="geometry" />
        </mxCell>
        <mxCell id="GyPhW97D4-BoHJmtfeBr-19" style="edgeStyle=none;rounded=0;orthogonalLoop=1;jettySize=auto;html=1;entryX=0.5;entryY=1;entryDx=0;entryDy=0;" edge="1" parent="1" source="GyPhW97D4-BoHJmtfeBr-4" target="GyPhW97D4-BoHJmtfeBr-4">
          <mxGeometry relative="1" as="geometry" />
        </mxCell>
        <mxCell id="GyPhW97D4-BoHJmtfeBr-24" style="edgeStyle=none;rounded=0;orthogonalLoop=1;jettySize=auto;html=1;entryX=0.5;entryY=1;entryDx=0;entryDy=0;" edge="1" parent="1" source="GyPhW97D4-BoHJmtfeBr-4" target="GyPhW97D4-BoHJmtfeBr-4">
          <mxGeometry relative="1" as="geometry" />
        </mxCell>
      </root>
    </mxGraphModel>
  </diagram>
</mxfile>
